<?xml version="1.0" ?>
<svg xmlns="http://www.w3.org/2000/svg" width="128" height="128" version="1.1" style="background: transparent;">
	<rect width="128" height="128" fill="none"/>
	<rect x="0" y="0" width="127" height="127" fill="none" stroke="black" stroke_width="1"/>
	<rect x="1" y="1" width="126" height="20" fill="grey"/>
	<rect x="1" y="22" width="18" height="15" fill="#3E2296"/>
	<rect x="20" y="22" width="18" height="15" fill="#3E2296"/>
	<rect x="39" y="22" width="18" height="15" fill="#3E2296"/>
	<rect x="58" y="22" width="18" height="15" fill="#3E2296"/>
	<rect x="77" y="22" width="18" height="15" fill="#3E2296"/>
	<rect x="96" y="22" width="18" height="15" fill="#3E2296"/>
	<rect x="115" y="22" width="18" height="15" fill="#3E2296"/>
	<rect x="1" y="38" width="18" height="15" fill="#3E2296"/>
	<rect x="20" y="38" width="18" height="15" fill="#3E2296"/>
	<rect x="39" y="38" width="18" height="15" fill="#3E2296"/>
	<rect x="58" y="38" width="18" height="15" fill="#3E2296"/>
	<rect x="77" y="38" width="18" height="15" fill="#3E2296"/>
	<rect x="96" y="38" width="18" height="15" fill="#3E2296"/>
	<rect x="115" y="38" width="18" height="15" fill="#3E2296"/>
	<rect x="1" y="54" width="18" height="15" fill="#3E2296"/>
	<rect x="20" y="54" width="18" height="15" fill="#3E2296"/>
	<rect x="39" y="54" width="18" height="15" fill="#3E2296"/>
	<rect x="58" y="54" width="18" height="15" fill="#3E2296"/>
	<rect x="77" y="54" width="18" height="15" fill="#3E2296"/>
	<rect x="96" y="54" width="18" height="15" fill="#3E2296"/>
	<rect x="115" y="54" width="18" height="15" fill="#3E2296"/>
	<rect x="1" y="70" width="18" height="15" fill="#3E2296"/>
	<rect x="20" y="70" width="18" height="15" fill="#3E2296"/>
	<rect x="39" y="70" width="18" height="15" fill="#3E2296"/>
	<rect x="58" y="70" width="18" height="15" fill="#3E2296"/>
	<rect x="77" y="70" width="18" height="15" fill="#3E2296"/>
	<rect x="96" y="70" width="18" height="15" fill="#3E2296"/>
	<rect x="115" y="70" width="18" height="15" fill="#3E2296"/>
	<rect x="1" y="86" width="18" height="15" fill="#3E2296"/>
	<rect x="20" y="86" width="18" height="15" fill="#3E2296"/>
	<rect x="39" y="86" width="18" height="15" fill="#3E2296"/>
	<rect x="58" y="86" width="18" height="15" fill="#3E2296"/>
	<rect x="77" y="86" width="18" height="15" fill="#3E2296"/>
	<rect x="96" y="86" width="18" height="15" fill="#3E2296"/>
	<rect x="115" y="86" width="18" height="15" fill="#3E2296"/>
	<rect x="1" y="102" width="18" height="15" fill="#3E2296"/>
	<rect x="20" y="102" width="18" height="15" fill="#3E2296"/>
	<rect x="39" y="102" width="18" height="15" fill="#3E2296"/>
	<rect x="58" y="102" width="18" height="15" fill="#3E2296"/>
	<rect x="77" y="102" width="18" height="15" fill="#3E2296"/>
	<rect x="96" y="102" width="18" height="15" fill="#3E2296"/>
	<rect x="115" y="102" width="18" height="15" fill="#3E2296"/>
</svg>
